<svg width="152" height="51" viewBox="0 0 152 51" fill="none" xmlns="http://www.w3.org/2000/svg">
<path d="M64.3484 25.1428C64.3484 24.1535 64.1617 23.2295 63.7884 22.3708C63.415 21.4935 62.9017 20.7375 62.2484 20.1028C61.6137 19.4495 60.8577 18.9361 59.9804 18.5628C59.103 18.1895 58.1697 18.0028 57.1804 18.0028C56.191 18.0028 55.2577 18.1895 54.3804 18.5628C53.5217 18.9361 52.7657 19.4495 52.1124 20.1028C51.4777 20.7375 50.9737 21.4935 50.6004 22.3708C50.227 23.2295 50.0404 24.1535 50.0404 25.1428C50.0404 26.1321 50.227 27.0655 50.6004 27.9428C50.9737 28.8201 51.4777 29.5855 52.1124 30.2388C52.7657 30.8735 53.5217 31.3775 54.3804 31.7508C55.2577 32.1241 56.191 32.3108 57.1804 32.3108C58.1697 32.3108 59.103 32.1241 59.9804 31.7508C60.8577 31.3775 61.6137 30.8735 62.2484 30.2388C62.9017 29.5855 63.415 28.8201 63.7884 27.9428C64.1617 27.0655 64.3484 26.1321 64.3484 25.1428ZM68.4364 25.1428C68.4364 26.6921 68.1377 28.1388 67.5404 29.4828C66.9617 30.8268 66.159 31.9935 65.1324 32.9828C64.1244 33.9535 62.9297 34.7188 61.5484 35.2788C60.1857 35.8388 58.7297 36.1188 57.1804 36.1188C55.6124 36.1188 54.147 35.8388 52.7844 35.2788C51.4217 34.7188 50.227 33.9535 49.2004 32.9828C48.1924 31.9935 47.3897 30.8268 46.7924 29.4828C46.2137 28.1388 45.9244 26.6921 45.9244 25.1428C45.9244 23.5935 46.2137 22.1468 46.7924 20.8028C47.3897 19.4588 48.1924 18.3015 49.2004 17.3308C50.227 16.3415 51.4217 15.5668 52.7844 15.0068C54.147 14.4468 55.6124 14.1668 57.1804 14.1668C58.7297 14.1668 60.1857 14.4468 61.5484 15.0068C62.9297 15.5668 64.1244 16.3415 65.1324 17.3308C66.159 18.3015 66.9617 19.4588 67.5404 20.8028C68.1377 22.1468 68.4364 23.5935 68.4364 25.1428ZM92.909 35.6428H81.653C80.085 35.6428 78.6197 35.3815 77.257 34.8588C75.8944 34.3361 74.6997 33.6081 73.673 32.6748C72.665 31.7415 71.8624 30.6308 71.265 29.3428C70.6864 28.0361 70.397 26.6081 70.397 25.0588C70.397 23.5095 70.6864 22.0721 71.265 20.7468C71.8624 19.4215 72.665 18.2735 73.673 17.3028C74.6997 16.3321 75.8944 15.5761 77.257 15.0348C78.6197 14.4748 80.085 14.1948 81.653 14.1948C83.221 14.1948 84.6864 14.4748 86.049 15.0348C87.4117 15.5761 88.597 16.3321 89.605 17.3028C90.6317 18.2735 91.4344 19.4215 92.013 20.7468C92.6104 22.0721 92.909 23.5095 92.909 25.0588C92.909 25.7495 92.8157 26.4121 92.629 27.0468C92.461 27.6628 92.2184 28.2508 91.901 28.8108C91.6024 29.3708 91.2477 29.9028 90.837 30.4068C90.445 30.9108 90.0344 31.3961 89.605 31.8628L89.689 31.9748H92.909V35.6428ZM81.653 32.0028C82.6237 32.0028 83.5384 31.8255 84.397 31.4708C85.2744 31.1161 86.0304 30.6308 86.665 30.0148C87.3184 29.3988 87.8317 28.6708 88.205 27.8308C88.597 26.9721 88.8024 26.0481 88.821 25.0588C88.821 24.0881 88.6344 23.1735 88.261 22.3148C87.8877 21.4561 87.3744 20.7095 86.721 20.0748C86.0864 19.4401 85.3304 18.9455 84.453 18.5908C83.5757 18.2175 82.6424 18.0308 81.653 18.0308C80.6637 18.0308 79.7304 18.2175 78.853 18.5908C77.9944 18.9455 77.2384 19.4401 76.585 20.0748C75.9504 20.7095 75.4464 21.4561 75.073 22.3148C74.6997 23.1735 74.513 24.0881 74.513 25.0588C74.513 26.0295 74.6997 26.9348 75.073 27.7748C75.4464 28.6148 75.9504 29.3521 76.585 29.9868C77.2384 30.6028 77.9944 31.0975 78.853 31.4708C79.7304 31.8255 80.6637 32.0028 81.653 32.0028ZM103.435 18.4788V35.6428H99.4873V18.4788H93.2433V14.6428H109.623V18.4788H103.435ZM120.297 27.9988L117.833 19.4588H117.609L115.145 27.9988H120.297ZM127.241 35.6428H122.985L121.641 31.8348H113.801L112.485 35.6428H108.173L115.593 14.6428H119.877L127.241 35.6428Z" fill="black"/>
<circle cx="29.328" cy="19.1428" r="5.25" fill="black"/>
</svg>
