<svg width="24" height="24" viewBox="0 0 24 24" fill="none" xmlns="http://www.w3.org/2000/svg">
<path d="M11.9999 3.90009C12.4615 3.90009 12.8419 4.24753 12.8938 4.69513L12.8999 4.80009V19.2001C12.8999 19.6972 12.497 20.1001 11.9999 20.1001C11.5383 20.1001 11.1579 19.7527 11.106 19.305L11.0999 19.2001V4.80009C11.0999 4.30303 11.5028 3.90009 11.9999 3.90009ZM8.3999 6.60009C8.89695 6.60009 9.2999 7.00303 9.2999 7.50009V16.5001C9.2999 16.9972 8.89695 17.4001 8.3999 17.4001C7.90285 17.4001 7.4999 16.9972 7.4999 16.5001V7.50009C7.4999 7.00303 7.90285 6.60009 8.3999 6.60009ZM15.5999 6.60009C16.097 6.60009 16.4999 7.00303 16.4999 7.50009V16.5001C16.4999 16.9972 16.097 17.4001 15.5999 17.4001C15.1028 17.4001 14.6999 16.9972 14.6999 16.5001V7.50009C14.6999 7.00303 15.1028 6.60009 15.5999 6.60009ZM4.7999 9.30009C5.29695 9.30009 5.6999 9.70303 5.6999 10.2001V13.8001C5.6999 14.2972 5.29695 14.7001 4.7999 14.7001C4.30285 14.7001 3.8999 14.2972 3.8999 13.8001V10.2001C3.8999 9.70303 4.30285 9.30009 4.7999 9.30009ZM19.1999 9.30009C19.6615 9.30009 20.0419 9.64753 20.0938 10.0951L20.0999 10.2001V13.8001C20.0999 14.2972 19.697 14.7001 19.1999 14.7001C18.7383 14.7001 18.3579 14.3527 18.306 13.905L18.2999 13.8001V10.2001C18.2999 9.70303 18.7028 9.30009 19.1999 9.30009Z" fill="#1E1E1E"/>
</svg>
